<svg xmlns="http://www.w3.org/2000/svg" viewBox="0 0 920 240" width="920" height="240" role="img" aria-label="Anthropic University — Claude Certification study hub">
  <rect x="0" y="0" width="920" height="240" rx="24" fill="#F2EEE6"/>
  <!-- coral spark tile -->
  <g transform="translate(40,60) scale(1.875)">
    <rect x="2" y="2" width="60" height="60" rx="15" fill="#CC6A4E"/>
    <g stroke="#F7F3EC" stroke-width="3.2" stroke-linecap="round">
      <line x1="32" y1="32" x2="32" y2="6"/>
      <line x1="32" y1="32" x2="24.96" y2="18.75"/>
      <line x1="32" y1="32" x2="13.98" y2="19.37"/>
      <line x1="32" y1="32" x2="19.20" y2="29.74"/>
      <line x1="32" y1="32" x2="9.44" y2="40.21"/>
      <line x1="32" y1="32" x2="23.38" y2="43.03"/>
      <line x1="32" y1="32" x2="28.52" y2="51.70"/>
      <line x1="32" y1="32" x2="36.02" y2="44.36"/>
      <line x1="32" y1="32" x2="48.26" y2="48.26"/>
      <line x1="32" y1="32" x2="46.10" y2="37.13"/>
      <line x1="32" y1="32" x2="51.74" y2="24.82"/>
      <line x1="32" y1="32" x2="40.04" y2="20.53"/>
    </g>
    <circle cx="32" cy="32" r="3.4" fill="#F7F3EC"/>
  </g>
  <!-- wordmark -->
  <text x="200" y="112" font-family="Georgia, 'Iowan Old Style', 'Times New Roman', serif" font-size="62" fill="#1F1D1A">Anthropic <tspan fill="#CC6A4E">University</tspan></text>
  <text x="202" y="150" font-family="'Helvetica Neue', Arial, sans-serif" font-size="23" letter-spacing="1.5" fill="#5C574E">Claude Certification — practice exams &amp; study guides</text>
  <!-- unofficial pill -->
  <g transform="translate(202,172)">
    <rect x="0" y="0" width="132" height="30" rx="15" fill="none" stroke="#B98A5E" stroke-width="1.5"/>
    <text x="66" y="20" text-anchor="middle" font-family="'Helvetica Neue', Arial, sans-serif" font-size="14" letter-spacing="2" fill="#8A6A45">UNOFFICIAL</text>
  </g>
</svg>
